<?xml version="1.0" encoding="UTF-8"?>
<svg xmlns="http://www.w3.org/2000/svg" xmlns:xlink="http://www.w3.org/1999/xlink" width="25px" height="25px" viewBox="0 0 25 25" version="1.1">
<g id="surface1">
<path style=" stroke:none;fill-rule:nonzero;fill:rgb(0%,0%,0%);fill-opacity:1;" d="M 5.191406 12.945312 C 4.09375 12.945312 3.195312 13.839844 3.195312 14.941406 C 3.195312 16.042969 4.09375 16.9375 5.191406 16.9375 C 6.292969 16.9375 7.1875 16.042969 7.1875 14.941406 C 7.1875 13.839844 6.292969 12.945312 5.191406 12.945312 Z M 5.191406 15.941406 C 4.640625 15.941406 4.191406 15.492188 4.191406 14.941406 C 4.191406 14.390625 4.640625 13.941406 5.191406 13.941406 C 5.742188 13.941406 6.191406 14.390625 6.191406 14.941406 C 6.191406 15.492188 5.742188 15.941406 5.191406 15.941406 Z M 5.191406 15.941406 "/>
<path style=" stroke:none;fill-rule:nonzero;fill:rgb(0%,0%,0%);fill-opacity:1;" d="M 19.820312 12.945312 C 18.71875 12.945312 17.824219 13.839844 17.824219 14.941406 C 17.824219 16.042969 18.71875 16.9375 19.820312 16.9375 C 20.921875 16.9375 21.816406 16.042969 21.816406 14.941406 C 21.816406 13.839844 20.921875 12.945312 19.820312 12.945312 Z M 19.820312 15.941406 C 19.269531 15.941406 18.820312 15.492188 18.820312 14.941406 C 18.820312 14.390625 19.269531 13.941406 19.820312 13.941406 C 20.371094 13.941406 20.820312 14.390625 20.820312 14.941406 C 20.820312 15.492188 20.371094 15.941406 19.820312 15.941406 Z M 19.820312 15.941406 "/>
<path style=" stroke:none;fill-rule:nonzero;fill:rgb(0%,0%,0%);fill-opacity:1;" d="M 13.191406 3.257812 C 13.191406 2.984375 12.96875 2.761719 12.691406 2.761719 L 5.179688 2.761719 C 4.902344 2.761719 4.679688 2.984375 4.679688 3.257812 C 4.679688 3.535156 4.902344 3.757812 5.179688 3.757812 L 12.691406 3.757812 C 12.96875 3.757812 13.191406 3.535156 13.191406 3.257812 Z M 13.191406 3.257812 "/>
<path style=" stroke:none;fill-rule:nonzero;fill:rgb(0%,0%,0%);fill-opacity:1;" d="M 14.335938 3.757812 L 15.097656 3.757812 C 15.375 3.757812 15.597656 3.535156 15.597656 3.257812 C 15.597656 2.984375 15.375 2.761719 15.097656 2.761719 L 14.335938 2.761719 C 14.0625 2.761719 13.839844 2.984375 13.839844 3.257812 C 13.839844 3.535156 14.0625 3.757812 14.335938 3.757812 Z M 14.335938 3.757812 "/>
<path style=" stroke:none;fill-rule:nonzero;fill:rgb(0%,0%,0%);fill-opacity:1;" d="M 15.074219 16.671875 L 9.925781 16.671875 C 9.648438 16.671875 9.425781 16.894531 9.425781 17.167969 C 9.425781 17.445312 9.648438 17.667969 9.925781 17.667969 L 15.074219 17.667969 C 15.351562 17.667969 15.574219 17.445312 15.574219 17.167969 C 15.574219 16.894531 15.351562 16.671875 15.074219 16.671875 Z M 15.074219 16.671875 "/>
<path style=" stroke:none;fill-rule:nonzero;fill:rgb(0%,0%,0%);fill-opacity:1;" d="M 24.503906 6.988281 L 22.332031 6.988281 L 22.332031 3.535156 C 22.332031 2.148438 21.203125 1.023438 19.816406 1.023438 L 5.183594 1.023438 C 3.796875 1.023438 2.667969 2.148438 2.667969 3.535156 L 2.667969 6.988281 L 0.496094 6.988281 C 0.222656 6.988281 0 7.210938 0 7.488281 L 0 9.417969 C 0 9.695312 0.222656 9.917969 0.496094 9.917969 L 1.070312 9.917969 C 0.65625 10.40625 0.402344 11.042969 0.402344 11.734375 L 0.402344 19.117188 C 0.402344 19.394531 0.625 19.617188 0.902344 19.617188 L 1.601562 19.617188 L 1.601562 21.859375 C 1.601562 23.027344 2.554688 23.976562 3.722656 23.976562 L 4.136719 23.976562 C 5.304688 23.976562 6.257812 23.027344 6.257812 21.859375 L 6.257812 19.617188 L 18.535156 19.617188 L 18.535156 21.859375 C 18.535156 23.027344 19.484375 23.976562 20.65625 23.976562 L 21.070312 23.976562 C 22.238281 23.976562 23.1875 23.027344 23.1875 21.859375 L 23.1875 19.617188 L 24.097656 19.617188 C 24.375 19.617188 24.597656 19.394531 24.597656 19.117188 L 24.597656 11.734375 C 24.597656 11.042969 24.34375 10.40625 23.929688 9.917969 L 24.503906 9.917969 C 24.777344 9.917969 25 9.695312 25 9.417969 L 25 7.488281 C 25 7.210938 24.777344 6.988281 24.503906 6.988281 Z M 3.664062 3.535156 C 3.664062 2.699219 4.34375 2.019531 5.183594 2.019531 L 19.816406 2.019531 C 20.65625 2.019531 21.335938 2.699219 21.335938 3.535156 L 21.335938 8.925781 L 16.957031 8.925781 L 19.367188 8.246094 C 19.632812 8.167969 19.78125 7.890625 19.703125 7.625 C 19.621094 7.363281 19.34375 7.214844 19.082031 7.292969 L 13.636719 8.925781 L 8.96875 8.925781 L 11.394531 8.238281 C 11.660156 8.15625 11.808594 7.878906 11.730469 7.617188 C 11.648438 7.351562 11.371094 7.203125 11.109375 7.28125 L 5.632812 8.925781 L 3.664062 8.925781 Z M 0.996094 8.921875 L 0.996094 7.984375 L 2.664062 7.984375 L 2.664062 8.921875 Z M 4.136719 22.980469 L 3.722656 22.980469 C 3.101562 22.980469 2.597656 22.476562 2.597656 21.859375 L 2.597656 19.628906 L 5.261719 19.628906 L 5.261719 21.859375 C 5.261719 22.476562 4.757812 22.980469 4.136719 22.980469 Z M 21.070312 22.980469 L 20.65625 22.980469 C 20.035156 22.980469 19.53125 22.476562 19.53125 21.859375 L 19.53125 19.628906 L 22.191406 19.628906 L 22.191406 21.859375 C 22.191406 22.476562 21.691406 22.980469 21.070312 22.980469 Z M 23.601562 18.621094 L 1.398438 18.621094 L 1.398438 11.734375 C 1.398438 10.734375 2.210938 9.921875 3.210938 9.921875 L 21.789062 9.921875 C 22.789062 9.921875 23.601562 10.734375 23.601562 11.734375 Z M 24.003906 8.921875 L 22.335938 8.921875 L 22.335938 7.984375 L 24.003906 7.984375 Z M 24.003906 8.921875 "/>
</g>
</svg>
