<?xml version="1.0" encoding="UTF-8"?>
<svg xmlns="http://www.w3.org/2000/svg" xmlns:xlink="http://www.w3.org/1999/xlink" width="20px" height="20px" viewBox="0 0 20 20" version="1.1">
<g id="surface1">
<path style=" stroke:none;fill-rule:nonzero;fill:#284d7b;fill-opacity:1;" d="M 10 0 C 4.472656 0 0 4.472656 0 10 C 0 15.527344 4.472656 20 10 20 C 15.527344 20 20 15.527344 20 10 C 20 4.472656 15.527344 0 10 0 Z M 10.492188 10.414062 L 7.765625 13.65625 C 7.539062 13.925781 7.132812 13.960938 6.859375 13.734375 C 6.585938 13.503906 6.550781 13.097656 6.78125 12.828125 L 9.355469 9.765625 L 9.355469 2.492188 C 9.355469 2.136719 9.644531 1.847656 10 1.847656 C 10.355469 1.847656 10.644531 2.136719 10.644531 2.492188 L 10.644531 10 C 10.644531 10.152344 10.589844 10.296875 10.492188 10.414062 Z M 10.492188 10.414062 "/>
</g>
</svg>
