<?xml version="1.0" encoding="UTF-8"?>
<svg xmlns="http://www.w3.org/2000/svg" xmlns:xlink="http://www.w3.org/1999/xlink" width="25px" height="25px" viewBox="0 0 25 25" version="1.1">
<g id="surface1">
<path style=" stroke:none;fill-rule:nonzero;fill:rgb(0%,0%,0%);fill-opacity:1;" d="M 9.402344 20.664062 C 9.722656 20.730469 9.925781 21.042969 9.859375 21.359375 C 9.800781 21.636719 9.554688 21.824219 9.285156 21.824219 C 9.242188 21.824219 9.203125 21.820312 9.160156 21.8125 C 5.738281 21.089844 3.054688 18.410156 2.335938 14.984375 C 2.269531 14.667969 2.472656 14.355469 2.789062 14.289062 C 3.105469 14.222656 3.417969 14.425781 3.484375 14.742188 C 4.109375 17.714844 6.433594 20.035156 9.402344 20.664062 Z M 11.585938 13.152344 C 11.585938 12.828125 11.320312 12.5625 10.996094 12.5625 C 10.671875 12.5625 10.410156 12.828125 10.410156 13.152344 C 10.410156 13.476562 10.671875 13.738281 10.996094 13.738281 C 11.320312 13.738281 11.585938 13.476562 11.585938 13.152344 Z M 25 1.441406 L 25 8.59375 C 25 8.917969 24.738281 9.179688 24.414062 9.179688 C 24.089844 9.179688 23.824219 8.917969 23.824219 8.59375 L 23.824219 7.878906 L 14.71875 7.878906 L 12.726562 11.328125 C 13.074219 11.65625 13.328125 12.082031 13.445312 12.5625 L 16.269531 12.5625 L 16.269531 9.765625 C 16.269531 9.441406 16.53125 9.179688 16.855469 9.179688 C 17.179688 9.179688 17.445312 9.441406 17.445312 9.765625 L 17.445312 13.132812 C 17.445312 13.140625 17.445312 13.144531 17.445312 13.152344 C 17.445312 15.078125 16.59375 16.8125 15.246094 17.996094 C 15.234375 18.011719 15.21875 18.023438 15.203125 18.039062 C 14.671875 18.496094 14.074219 18.859375 13.433594 19.121094 C 12.6875 19.425781 11.875 19.59375 11.023438 19.597656 C 11.023438 19.597656 11.019531 19.597656 11.019531 19.597656 C 11.019531 19.597656 11.015625 19.597656 11.015625 19.597656 C 11.015625 19.597656 11.011719 19.597656 11.011719 19.597656 C 11.007812 19.597656 11.007812 19.597656 11.007812 19.597656 C 11.003906 19.597656 11.003906 19.597656 11 19.597656 C 11 19.597656 10.996094 19.597656 10.996094 19.597656 C 9.835938 19.597656 8.746094 19.292969 7.804688 18.753906 C 7.792969 18.746094 7.785156 18.742188 7.773438 18.734375 C 7.761719 18.726562 7.75 18.722656 7.738281 18.714844 C 5.832031 17.59375 4.546875 15.519531 4.546875 13.152344 C 4.546875 10.785156 5.832031 8.710938 7.738281 7.589844 C 7.75 7.582031 7.761719 7.574219 7.773438 7.566406 C 7.785156 7.5625 7.792969 7.554688 7.804688 7.550781 C 8.746094 7.011719 9.835938 6.703125 10.996094 6.703125 C 11.042969 6.703125 11.089844 6.707031 11.132812 6.71875 C 11.175781 6.707031 11.222656 6.703125 11.269531 6.703125 L 14.371094 6.703125 C 14.375 6.703125 14.382812 6.703125 14.390625 6.703125 L 23.824219 6.703125 L 23.824219 3.328125 L 11.269531 3.328125 C 11.222656 3.328125 11.175781 3.324219 11.132812 3.3125 C 11.089844 3.324219 11.042969 3.328125 10.996094 3.328125 C 5.582031 3.328125 1.175781 7.734375 1.175781 13.152344 C 1.175781 18.566406 5.582031 22.972656 10.996094 22.972656 C 14.777344 22.972656 18.265625 20.761719 19.878906 17.34375 C 19.90625 17.285156 19.941406 17.234375 19.984375 17.191406 C 20.539062 15.96875 20.847656 14.613281 20.851562 13.191406 C 20.851562 13.183594 20.851562 13.179688 20.851562 13.175781 L 20.851562 9.765625 C 20.851562 9.441406 21.117188 9.179688 21.441406 9.179688 C 21.765625 9.179688 22.027344 9.441406 22.027344 9.765625 L 22.027344 13.132812 C 22.027344 13.140625 22.027344 13.144531 22.027344 13.152344 C 22.027344 19.214844 17.09375 24.148438 11.03125 24.148438 C 11.019531 24.148438 11.007812 24.148438 10.996094 24.148438 C 4.933594 24.148438 0 19.214844 0 13.152344 C 0 7.085938 4.933594 2.15625 10.996094 2.15625 C 11.042969 2.15625 11.089844 2.160156 11.132812 2.171875 C 11.175781 2.160156 11.222656 2.15625 11.269531 2.15625 L 23.824219 2.15625 L 23.824219 1.441406 C 23.824219 1.117188 24.089844 0.851562 24.414062 0.851562 C 24.738281 0.851562 25 1.117188 25 1.441406 Z M 5.753906 12.5625 L 8.546875 12.5625 C 8.664062 12.082031 8.917969 11.65625 9.265625 11.328125 L 7.867188 8.90625 C 6.714844 9.757812 5.921875 11.066406 5.753906 12.5625 Z M 7.867188 17.394531 L 9.265625 14.976562 C 8.917969 14.644531 8.664062 14.21875 8.546875 13.738281 L 5.753906 13.738281 C 5.921875 15.234375 6.714844 16.542969 7.867188 17.394531 Z M 13.109375 17.984375 L 11.710938 15.5625 C 11.484375 15.632812 11.246094 15.667969 10.996094 15.667969 C 10.746094 15.667969 10.507812 15.632812 10.28125 15.5625 L 8.882812 17.984375 C 9.53125 18.265625 10.246094 18.425781 10.996094 18.425781 C 10.996094 18.425781 11 18.425781 11 18.425781 C 11.003906 18.425781 11.003906 18.425781 11.003906 18.425781 C 11.007812 18.425781 11.007812 18.425781 11.007812 18.425781 C 11.011719 18.425781 11.011719 18.425781 11.015625 18.425781 C 11.015625 18.425781 11.015625 18.425781 11.019531 18.425781 C 11.6875 18.421875 12.34375 18.292969 12.957031 18.046875 C 13.007812 18.027344 13.058594 18.003906 13.109375 17.984375 Z M 10.996094 14.492188 C 11.734375 14.492188 12.339844 13.890625 12.339844 13.152344 C 12.339844 12.410156 11.734375 11.808594 10.996094 11.808594 C 10.257812 11.808594 9.652344 12.410156 9.652344 13.152344 C 9.652344 13.890625 10.257812 14.492188 10.996094 14.492188 Z M 12.726562 14.976562 L 14.125 17.394531 C 15.277344 16.542969 16.070312 15.234375 16.238281 13.738281 L 13.445312 13.738281 C 13.328125 14.21875 13.074219 14.644531 12.726562 14.976562 Z M 13.363281 7.878906 L 11.269531 7.878906 C 11.222656 7.878906 11.175781 7.871094 11.132812 7.863281 C 11.089844 7.871094 11.042969 7.878906 10.996094 7.878906 C 10.246094 7.878906 9.53125 8.035156 8.882812 8.320312 L 10.28125 10.738281 C 10.507812 10.671875 10.746094 10.632812 10.996094 10.632812 C 11.246094 10.632812 11.484375 10.671875 11.710938 10.738281 Z M 13.363281 7.878906 "/>
</g>
</svg>
