<?xml version="1.0" encoding="UTF-8"?>
<svg xmlns="http://www.w3.org/2000/svg" xmlns:xlink="http://www.w3.org/1999/xlink" width="25px" height="25px" viewBox="0 0 25 25" version="1.1">
<g id="surface1">
<path style=" stroke:none;fill-rule:nonzero;fill:rgb(255, 255, 255);fill-opacity:1;" d="M 13.972656 23.609375 L 4.097656 23.609375 C 3.570312 23.628906 3.054688 23.429688 2.675781 23.0625 C 2.296875 22.695312 2.082031 22.1875 2.082031 21.660156 L 2.082031 3.375 C 2.125 2.265625 3.058594 1.398438 4.167969 1.4375 L 14.042969 1.4375 C 14.558594 1.425781 15.058594 1.625 15.421875 1.992188 C 15.785156 2.359375 15.984375 2.859375 15.972656 3.375 L 15.972656 21.660156 C 15.96875 22.183594 15.757812 22.6875 15.382812 23.054688 C 15.003906 23.421875 14.496094 23.621094 13.972656 23.609375 Z M 4.097656 2.777344 C 3.933594 2.773438 3.777344 2.832031 3.660156 2.945312 C 3.542969 3.058594 3.472656 3.210938 3.472656 3.375 L 3.472656 21.660156 C 3.472656 21.992188 3.742188 22.265625 4.078125 22.265625 L 13.972656 22.265625 C 14.316406 22.269531 14.605469 22.003906 14.632812 21.660156 L 14.632812 3.375 C 14.601562 3.035156 14.316406 2.773438 13.972656 2.777344 Z M 4.097656 2.777344 "/>
<path style=" stroke:none;fill-rule:nonzero;fill:rgb(255, 255, 255);fill-opacity:1;" d="M 20.507812 23.609375 C 19.859375 23.617188 19.234375 23.363281 18.773438 22.90625 C 18.316406 22.449219 18.054688 21.828125 18.054688 21.179688 L 18.054688 15.972656 C 18.054688 15.207031 17.433594 14.582031 16.667969 14.582031 L 15.671875 14.582031 C 15.289062 14.582031 14.980469 14.273438 14.980469 13.890625 C 14.980469 13.503906 15.289062 13.195312 15.671875 13.195312 L 16.667969 13.195312 C 18.199219 13.195312 19.445312 14.4375 19.445312 15.972656 L 19.445312 21.179688 C 19.445312 21.753906 19.910156 22.222656 20.484375 22.222656 C 21.0625 22.222656 21.527344 21.753906 21.527344 21.179688 L 21.527344 12.015625 L 19.355469 7.152344 C 19.089844 6.601562 18.53125 6.25 17.917969 6.25 L 17.410156 6.25 C 17.027344 6.25 16.714844 5.9375 16.714844 5.554688 C 16.714844 5.171875 17.027344 4.859375 17.410156 4.859375 L 17.917969 4.859375 C 19.097656 4.859375 20.164062 5.554688 20.644531 6.632812 L 22.875 11.605469 C 22.914062 11.695312 22.9375 11.789062 22.9375 11.890625 L 22.9375 21.179688 C 22.9375 22.523438 21.847656 23.609375 20.507812 23.609375 Z M 20.507812 23.609375 "/>
<path style=" stroke:none;fill-rule:nonzero;fill:rgb(255, 255, 255);fill-opacity:1;" d="M 12.5 6.25 L 5.554688 6.25 C 5.171875 6.25 4.859375 5.9375 4.859375 5.554688 C 4.859375 5.171875 5.171875 4.859375 5.554688 4.859375 L 12.5 4.859375 C 12.882812 4.859375 13.195312 5.171875 13.195312 5.554688 C 13.195312 5.9375 12.882812 6.25 12.5 6.25 Z M 12.5 6.25 "/>
<path style=" stroke:none;fill-rule:nonzero;fill:rgb(255, 255, 255);fill-opacity:1;" d="M 12.5 9.027344 L 5.554688 9.027344 C 5.171875 9.027344 4.859375 8.71875 4.859375 8.332031 C 4.859375 7.949219 5.171875 7.640625 5.554688 7.640625 L 12.5 7.640625 C 12.882812 7.640625 13.195312 7.949219 13.195312 8.332031 C 13.195312 8.71875 12.882812 9.027344 12.5 9.027344 Z M 12.5 9.027344 "/>
<path style=" stroke:none;fill-rule:nonzero;fill:rgb(255, 255, 255);fill-opacity:1;" d="M 17.359375 8.390625 C 16.976562 8.390625 16.667969 8.078125 16.667969 7.695312 L 16.667969 3.527344 C 16.667969 3.144531 16.976562 2.832031 17.359375 2.832031 C 17.746094 2.832031 18.054688 3.144531 18.054688 3.527344 L 18.054688 7.695312 C 18.054688 8.078125 17.746094 8.390625 17.359375 8.390625 Z M 17.359375 8.390625 "/>
</g>
</svg>
