<?xml version="1.0" encoding="UTF-8"?>
<svg xmlns="http://www.w3.org/2000/svg" xmlns:xlink="http://www.w3.org/1999/xlink" width="20px" height="20px" viewBox="0 0 20 20" version="1.1">
<g id="surface1">
<path style=" stroke:none;fill-rule:nonzero;fill:#f6cd13;fill-opacity:1;" d="M 19.5 16.75 L 19 16.75 L 19 7.082031 L 19.304688 7.210938 C 19.367188 7.238281 19.433594 7.25 19.5 7.25 C 19.695312 7.25 19.878906 7.136719 19.960938 6.945312 C 20.066406 6.691406 19.949219 6.398438 19.695312 6.289062 L 10.195312 2.289062 C 10.070312 2.238281 9.929688 2.238281 9.804688 2.289062 L 0.304688 6.289062 C 0.0507812 6.398438 -0.0664062 6.691406 0.0390625 6.945312 C 0.148438 7.199219 0.441406 7.316406 0.695312 7.210938 L 1 7.082031 L 1 16.75 L 0.5 16.75 C 0.222656 16.75 0 16.972656 0 17.25 C 0 17.527344 0.222656 17.75 0.5 17.75 L 19.5 17.75 C 19.777344 17.75 20 17.527344 20 17.25 C 20 16.972656 19.777344 16.75 19.5 16.75 Z M 16 16.75 L 4 16.75 L 4 14.75 L 16 14.75 Z M 16 13.75 L 4 13.75 L 4 11.75 L 16 11.75 Z M 16 10.75 L 4 10.75 L 4 8.75 L 16 8.75 Z M 18 16.75 L 17 16.75 L 17 8.75 C 17 8.199219 16.550781 7.75 16 7.75 L 4 7.75 C 3.449219 7.75 3 8.199219 3 8.75 L 3 16.75 L 2 16.75 L 2 6.660156 L 10 3.292969 L 18 6.660156 Z M 18 16.75 "/>
</g>
</svg>
