<?xml version="1.0" encoding="UTF-8"?>
<svg xmlns="http://www.w3.org/2000/svg" xmlns:xlink="http://www.w3.org/1999/xlink" width="25px" height="25px" viewBox="0 0 25 25" version="1.1">
<g id="surface1">
<path style=" stroke:none;fill-rule:nonzero;fill:rgb(255, 255, 255);fill-opacity:1;" d="M 22.917969 20.035156 L 22.917969 4.964844 C 24.09375 4.765625 25 3.734375 25 2.5 C 25 1.125 23.875 0 22.5 0 C 21.125 0 20 1.125 20 2.5 C 20 3.734375 20.90625 4.765625 22.082031 4.964844 L 22.082031 12.082031 L 16.25 12.082031 L 16.25 4.964844 C 17.429688 4.765625 18.332031 3.734375 18.332031 2.5 C 18.332031 1.125 17.207031 0 15.832031 0 C 14.457031 0 13.332031 1.125 13.332031 2.5 C 13.332031 3.734375 14.238281 4.765625 15.417969 4.964844 L 15.417969 12.082031 L 9.582031 12.082031 L 9.582031 4.964844 C 10.761719 4.765625 11.667969 3.734375 11.667969 2.5 C 11.667969 1.125 10.542969 0 9.167969 0 C 7.792969 0 6.667969 1.125 6.667969 2.5 C 6.667969 3.734375 7.570312 4.765625 8.75 4.964844 L 8.75 12.082031 L 2.917969 12.082031 L 2.917969 4.964844 C 4.09375 4.765625 5 3.734375 5 2.5 C 5 1.125 3.875 0 2.5 0 C 1.125 0 0 1.125 0 2.5 C 0 3.734375 0.90625 4.765625 2.082031 4.964844 L 2.082031 12.5 C 2.082031 12.75 2.25 12.917969 2.5 12.917969 L 8.75 12.917969 L 8.75 20.035156 C 7.570312 20.234375 6.667969 21.265625 6.667969 22.5 C 6.667969 23.875 7.792969 25 9.167969 25 C 10.542969 25 11.667969 23.875 11.667969 22.5 C 11.667969 21.265625 10.761719 20.234375 9.582031 20.035156 L 9.582031 12.917969 L 15.417969 12.917969 L 15.417969 20.035156 C 14.238281 20.234375 13.332031 21.265625 13.332031 22.5 C 13.332031 23.875 14.457031 25 15.832031 25 C 17.207031 25 18.332031 23.875 18.332031 22.5 C 18.332031 21.265625 17.429688 20.234375 16.25 20.035156 L 16.25 12.917969 L 22.082031 12.917969 L 22.082031 20.035156 C 20.90625 20.234375 20 21.265625 20 22.5 C 20 23.875 21.125 25 22.5 25 C 23.875 25 25 23.875 25 22.5 C 25 21.265625 24.09375 20.234375 22.917969 20.035156 Z M 20.832031 2.5 C 20.832031 1.582031 21.582031 0.832031 22.5 0.832031 C 23.417969 0.832031 24.167969 1.582031 24.167969 2.5 C 24.167969 3.417969 23.417969 4.167969 22.5 4.167969 C 21.582031 4.167969 20.832031 3.417969 20.832031 2.5 Z M 14.167969 2.5 C 14.167969 1.582031 14.917969 0.832031 15.832031 0.832031 C 16.75 0.832031 17.5 1.582031 17.5 2.5 C 17.5 3.417969 16.75 4.167969 15.832031 4.167969 C 14.917969 4.167969 14.167969 3.417969 14.167969 2.5 Z M 7.5 2.5 C 7.5 1.582031 8.25 0.832031 9.167969 0.832031 C 10.082031 0.832031 10.832031 1.582031 10.832031 2.5 C 10.832031 3.417969 10.082031 4.167969 9.167969 4.167969 C 8.25 4.167969 7.5 3.417969 7.5 2.5 Z M 0.832031 2.5 C 0.832031 1.582031 1.582031 0.832031 2.5 0.832031 C 3.417969 0.832031 4.167969 1.582031 4.167969 2.5 C 4.167969 3.417969 3.417969 4.167969 2.5 4.167969 C 1.582031 4.167969 0.832031 3.417969 0.832031 2.5 Z M 10.832031 22.5 C 10.832031 23.417969 10.082031 24.167969 9.167969 24.167969 C 8.25 24.167969 7.5 23.417969 7.5 22.5 C 7.5 21.582031 8.25 20.832031 9.167969 20.832031 C 10.082031 20.832031 10.832031 21.582031 10.832031 22.5 Z M 17.5 22.5 C 17.5 23.417969 16.75 24.167969 15.832031 24.167969 C 14.917969 24.167969 14.167969 23.417969 14.167969 22.5 C 14.167969 21.582031 14.917969 20.832031 15.832031 20.832031 C 16.75 20.832031 17.5 21.582031 17.5 22.5 Z M 22.5 24.167969 C 21.582031 24.167969 20.832031 23.417969 20.832031 22.5 C 20.832031 21.582031 21.582031 20.832031 22.5 20.832031 C 23.417969 20.832031 24.167969 21.582031 24.167969 22.5 C 24.167969 23.417969 23.417969 24.167969 22.5 24.167969 Z M 22.5 24.167969 "/>
</g>
</svg>
