<?xml version="1.0" encoding="UTF-8"?>
<svg xmlns="http://www.w3.org/2000/svg" xmlns:xlink="http://www.w3.org/1999/xlink" width="20px" height="20px" viewBox="0 0 20 20" version="1.1">
<g id="surface1">
<path style=" stroke:none;fill-rule:evenodd;fill:rgb(0%,0%,0%);fill-opacity:1;" d="M 0 0 L 0 20 L 20 20 L 20 0 Z M 7.105469 15.0625 C 4.285156 15.0625 2.042969 12.820312 2.042969 10 C 2.042969 7.179688 4.285156 4.9375 7.105469 4.9375 C 8.480469 4.9375 9.636719 5.441406 10.507812 6.3125 L 9.132812 7.613281 C 8.769531 7.25 8.121094 6.816406 7.105469 6.816406 C 5.371094 6.816406 3.996094 8.265625 3.996094 10 C 3.996094 11.734375 5.371094 13.183594 7.105469 13.183594 C 9.132812 13.183594 9.855469 11.734375 10 11.011719 L 7.105469 11.011719 L 7.105469 9.277344 L 11.878906 9.277344 C 11.953125 9.566406 11.953125 9.78125 11.953125 10.144531 C 11.953125 13.039062 10 15.0625 7.105469 15.0625 Z M 17.957031 10.722656 L 16.507812 10.722656 L 16.507812 12.167969 L 15.0625 12.167969 L 15.0625 10.722656 L 13.617188 10.722656 L 13.617188 9.277344 L 15.0625 9.277344 L 15.0625 7.832031 L 16.507812 7.832031 L 16.507812 9.277344 L 17.957031 9.277344 Z M 17.957031 10.722656 "/>
</g>
</svg>
