<?xml version="1.0" encoding="UTF-8"?>
<svg xmlns="http://www.w3.org/2000/svg" xmlns:xlink="http://www.w3.org/1999/xlink" width="20px" height="20px" viewBox="0 0 20 20" version="1.1">
<g id="surface1">
<path style=" stroke:none;fill-rule:evenodd;fill:rgb(0%,0%,0%);fill-opacity:1;" d="M 14.785156 4.675781 L 13.210938 4.675781 C 12.902344 4.679688 12.664062 4.902344 12.664062 5.207031 C 12.664062 5.742188 12.664062 6.273438 12.664062 6.808594 C 12.664062 7.113281 12.902344 7.335938 13.207031 7.335938 L 14.78125 7.335938 C 15.097656 7.335938 15.328125 7.109375 15.328125 6.792969 C 15.328125 6.269531 15.328125 5.742188 15.328125 5.222656 C 15.328125 4.90625 15.097656 4.679688 14.785156 4.675781 Z M 14.785156 4.675781 "/>
<path style=" stroke:none;fill-rule:evenodd;fill:rgb(0%,0%,0%);fill-opacity:1;" d="M 10.003906 12.664062 C 11.476562 12.664062 12.664062 11.472656 12.664062 10 C 12.664062 8.523438 11.472656 7.335938 10 7.335938 C 8.53125 7.335938 7.339844 8.53125 7.339844 9.996094 C 7.335938 11.472656 8.53125 12.664062 10.003906 12.664062 Z M 10.003906 12.664062 "/>
<path style=" stroke:none;fill-rule:evenodd;fill:rgb(0%,0%,0%);fill-opacity:1;" d="M 13.988281 11.503906 C 13.667969 12.34375 13.136719 13.015625 12.398438 13.523438 C 11.066406 14.433594 9.320312 14.507812 7.914062 13.71875 C 7.210938 13.320312 6.652344 12.761719 6.261719 12.042969 C 5.730469 11.0625 5.609375 10.023438 5.878906 8.941406 L 4.675781 8.941406 L 4.675781 14.765625 C 4.675781 15.101562 4.902344 15.324219 5.238281 15.324219 C 5.449219 15.328125 5.664062 15.324219 5.875 15.324219 L 14.75 15.324219 C 15.109375 15.324219 15.328125 15.105469 15.328125 14.746094 L 15.328125 8.9375 L 14.125 8.9375 C 14.34375 9.8125 14.304688 10.664062 13.988281 11.503906 Z M 13.988281 11.503906 "/>
<path style=" stroke:none;fill-rule:evenodd;fill:rgb(0%,0%,0%);fill-opacity:1;" d="M 0 0 L 0 20 L 20 20 L 20 0 Z M 16.921875 4.65625 L 16.921875 15.347656 C 16.921875 16.132812 16.3125 16.820312 15.53125 16.914062 C 15.46875 16.917969 15.410156 16.921875 15.347656 16.921875 L 4.652344 16.921875 C 3.882812 16.921875 3.199219 16.328125 3.097656 15.5625 C 3.085938 15.472656 3.078125 15.382812 3.078125 15.289062 L 3.078125 4.699219 C 3.078125 3.902344 3.613281 3.253906 4.398438 3.101562 C 4.492188 3.085938 4.589844 3.078125 4.683594 3.078125 C 8.230469 3.078125 11.773438 3.078125 15.320312 3.078125 C 16.148438 3.078125 16.832031 3.695312 16.917969 4.519531 C 16.925781 4.566406 16.921875 4.609375 16.921875 4.65625 Z M 16.921875 4.65625 "/>
</g>
</svg>
