<?xml version="1.0" encoding="UTF-8"?>
<svg xmlns="http://www.w3.org/2000/svg" xmlns:xlink="http://www.w3.org/1999/xlink" width="25px" height="150px" viewBox="0 0 25 25" version="1.1">
<g id="surface1">
<path style=" stroke:none;fill-rule:nonzero;fill:rgb(0%,0%,0%);fill-opacity:1;" d="M 25 12.5 C 25 5.605469 19.394531 0 12.5 0 C 5.605469 0 0 5.605469 0 12.5 C 0 19.394531 5.605469 25 12.5 25 C 19.394531 25 25 19.394531 25 12.5 Z M 1.75 12.5 C 1.75 6.570312 6.570312 1.75 12.5 1.75 C 18.429688 1.75 23.25 6.570312 23.25 12.5 C 23.25 18.429688 18.429688 23.25 12.5 23.25 C 6.570312 23.25 1.75 18.429688 1.75 12.5 Z M 1.75 12.5 "/>
<path style=" stroke:none;fill-rule:nonzero;fill:rgb(0%,0%,0%);fill-opacity:1;" d="M 15.421875 11.882812 L 11.746094 8.203125 C 11.402344 7.863281 10.847656 7.863281 10.503906 8.203125 C 10.164062 8.546875 10.164062 9.101562 10.503906 9.445312 L 13.566406 12.503906 L 10.503906 15.566406 C 10.164062 15.90625 10.164062 16.464844 10.503906 16.804688 C 10.671875 16.972656 10.898438 17.0625 11.121094 17.0625 C 11.347656 17.0625 11.570312 16.972656 11.738281 16.804688 L 15.417969 13.128906 C 15.765625 12.777344 15.765625 12.222656 15.421875 11.882812 Z M 15.421875 11.882812 "/>
</g>
</svg>
