<?xml version="1.0" encoding="UTF-8"?>
<svg xmlns="http://www.w3.org/2000/svg" xmlns:xlink="http://www.w3.org/1999/xlink" width="25px" height="25px" viewBox="0 0 25 25" version="1.1">
<g id="surface1">
<path style=" stroke:none;fill-rule:nonzero;fill:rgb(255, 255, 255);fill-opacity:1;" d="M 24.21875 13.28125 C 23.578125 -2.253906 1.425781 -2.257812 0.78125 13.28125 C 0.78125 15.355469 1.328125 17.390625 2.375 19.179688 L 3.125 22.808594 C 3.199219 23.179688 3.527344 23.445312 3.90625 23.4375 L 21.09375 23.4375 C 21.46875 23.445312 21.796875 23.183594 21.875 22.816406 L 22.632812 19.1875 C 23.675781 17.394531 24.222656 15.355469 24.21875 13.28125 Z M 12.5 3.125 C 20.125 3.027344 25.097656 11.5625 21.429688 18.117188 L 3.574219 18.117188 C -0.132812 11.519531 4.917969 3.035156 12.5 3.125 Z M 20.464844 21.875 L 4.535156 21.875 L 4.078125 19.6875 L 20.921875 19.6875 Z M 20.464844 21.875 "/>
<path style=" stroke:none;fill-rule:nonzero;fill:rgb(255, 255, 255);fill-opacity:1;" d="M 12.5 15.863281 C 13.925781 15.859375 15.078125 14.707031 15.074219 13.28125 C 15.066406 12.984375 15.011719 12.6875 14.917969 12.40625 L 17.851562 10.15625 C 18.195312 9.894531 18.257812 9.402344 17.992188 9.0625 C 17.730469 8.71875 17.242188 8.65625 16.898438 8.917969 L 13.96875 11.171875 C 13.058594 10.539062 11.84375 10.558594 10.957031 11.222656 C 10.070312 11.886719 9.707031 13.046875 10.054688 14.097656 C 10.40625 15.148438 11.390625 15.859375 12.5 15.859375 Z M 12.5 12.277344 C 13.058594 12.277344 13.511719 12.730469 13.511719 13.289062 C 13.511719 13.847656 13.058594 14.300781 12.5 14.300781 C 11.941406 14.300781 11.488281 13.847656 11.488281 13.289062 C 11.488281 12.730469 11.941406 12.277344 12.5 12.277344 Z M 12.5 12.277344 "/>
</g>
</svg>
