<?xml version="1.0" encoding="UTF-8"?>
<svg xmlns="http://www.w3.org/2000/svg" xmlns:xlink="http://www.w3.org/1999/xlink" width="25px" height="25px" viewBox="0 0 25 25" version="1.1">
<g id="surface1">
<path style=" stroke:none;fill-rule:nonzero;fill:rgb(255, 255, 255);fill-opacity:1;" d="M 2.921875 10.210938 C 2.816406 10.210938 2.71875 10.253906 2.644531 10.328125 C 2.480469 10.492188 1.027344 11.980469 1.027344 13.160156 C 1.027344 14.421875 1.878906 15.453125 2.921875 15.453125 C 3.964844 15.453125 4.8125 14.421875 4.8125 13.160156 C 4.8125 11.980469 3.363281 10.492188 3.199219 10.328125 C 3.125 10.253906 3.027344 10.210938 2.921875 10.210938 Z M 2.921875 14.671875 C 2.308594 14.671875 1.8125 13.992188 1.8125 13.160156 C 1.8125 12.617188 2.410156 11.757812 2.921875 11.175781 C 3.433594 11.757812 4.03125 12.617188 4.03125 13.160156 C 4.03125 13.992188 3.535156 14.671875 2.921875 14.671875 Z M 23.785156 8.496094 C 23.671875 8.425781 23.527344 8.417969 23.40625 8.480469 L 19.9375 10.21875 L 15.28125 10.21875 L 15.28125 9.097656 L 15.640625 9.097656 C 15.859375 9.097656 16.03125 8.921875 16.03125 8.707031 L 16.03125 7.386719 C 16.03125 7.171875 15.859375 6.996094 15.640625 6.996094 L 13.011719 6.996094 C 12.792969 6.996094 12.621094 7.171875 12.621094 7.386719 L 12.621094 8.707031 C 12.621094 8.921875 12.792969 9.097656 13.011719 9.097656 L 13.367188 9.097656 L 13.367188 10.21875 L 8.785156 10.21875 L 5.097656 6.527344 C 5.027344 6.453125 4.925781 6.410156 4.824219 6.410156 L 2.921875 6.410156 C 2.796875 6.410156 2.675781 6.472656 2.605469 6.574219 C 2.53125 6.675781 2.511719 6.808594 2.550781 6.929688 L 3.203125 8.828125 C 3.253906 8.988281 3.402344 9.09375 3.570312 9.09375 L 4.558594 9.09375 L 8.261719 18.34375 C 8.320312 18.492188 8.464844 18.589844 8.625 18.585938 L 20.03125 18.585938 C 20.089844 18.585938 20.148438 18.574219 20.203125 18.546875 L 23.753906 16.777344 C 23.886719 16.710938 23.972656 16.578125 23.972656 16.429688 L 23.96875 8.828125 C 23.96875 8.691406 23.902344 8.566406 23.785156 8.496094 Z M 13.402344 7.78125 L 15.25 7.78125 L 15.25 8.316406 L 13.402344 8.316406 Z M 14.148438 9.097656 L 14.5 9.097656 L 14.5 10.222656 L 14.148438 10.222656 Z M 23.1875 16.1875 L 19.9375 17.808594 L 8.886719 17.808594 L 5.1875 8.558594 C 5.125 8.410156 4.980469 8.3125 4.824219 8.3125 L 3.851562 8.3125 L 3.46875 7.191406 L 4.660156 7.191406 L 8.351562 10.890625 C 8.421875 10.960938 8.523438 11.003906 8.625 11.003906 L 20.03125 11.003906 C 20.089844 11.003906 20.148438 10.988281 20.203125 10.960938 L 23.1875 9.464844 Z M 19.640625 12.503906 L 19.640625 16.308594 C 19.636719 16.445312 19.707031 16.570312 19.824219 16.640625 C 19.9375 16.710938 20.082031 16.71875 20.203125 16.65625 L 22.105469 15.707031 C 22.238281 15.640625 22.320312 15.507812 22.320312 15.359375 L 22.320312 11.558594 C 22.320312 11.421875 22.25 11.296875 22.136719 11.226562 C 22.019531 11.152344 21.875 11.148438 21.753906 11.207031 L 19.855469 12.15625 C 19.722656 12.222656 19.636719 12.355469 19.636719 12.503906 Z M 20.421875 12.75 L 21.539062 12.191406 L 21.539062 15.117188 L 20.421875 15.671875 Z M 18.121094 12.113281 L 10.523438 12.113281 C 10.308594 12.113281 10.132812 12.289062 10.132812 12.503906 L 10.132812 16.308594 C 10.132812 16.527344 10.308594 16.699219 10.523438 16.699219 L 18.121094 16.699219 C 18.335938 16.699219 18.511719 16.527344 18.511719 16.308594 L 18.511719 12.5 C 18.511719 12.285156 18.335938 12.109375 18.121094 12.109375 Z M 17.730469 15.917969 L 10.914062 15.917969 L 10.914062 12.890625 L 17.730469 12.890625 Z M 17.730469 15.917969 "/>
</g>
</svg>
