<?xml version="1.0" encoding="UTF-8"?>
<svg xmlns="http://www.w3.org/2000/svg" xmlns:xlink="http://www.w3.org/1999/xlink" width="25px" height="25px" viewBox="0 0 25 25" version="1.1">
<g id="surface1">
<path style=" stroke:none;fill-rule:nonzero;fill:rgb(255, 255, 255);fill-opacity:1;" d="M 19.878906 4.984375 C 16.796875 1.957031 12.179688 1.117188 8.230469 2.867188 C 4.277344 4.613281 1.792969 8.597656 1.960938 12.914062 C 2.128906 17.230469 4.914062 21.007812 8.988281 22.449219 C 10.0625 22.828125 11.257812 22.660156 12.1875 22 C 13.117188 21.34375 13.671875 20.273438 13.671875 19.132812 L 13.671875 18.75 C 13.671875 18.101562 14.195312 17.578125 14.84375 17.578125 L 19.355469 17.578125 C 21 17.585938 22.425781 16.449219 22.785156 14.84375 C 22.964844 14.046875 23.054688 13.230469 23.046875 12.410156 C 23.027344 9.609375 21.886719 6.9375 19.878906 4.984375 Z M 20.5 14.324219 C 20.378906 14.859375 19.902344 15.238281 19.355469 15.234375 L 14.84375 15.234375 C 12.902344 15.238281 11.332031 16.808594 11.328125 18.75 L 11.328125 19.132812 C 11.328125 19.511719 11.144531 19.867188 10.832031 20.085938 C 10.523438 20.308594 10.125 20.363281 9.765625 20.238281 C 6.015625 18.910156 3.753906 15.082031 4.40625 11.15625 C 5.058594 7.230469 8.433594 4.339844 12.414062 4.296875 C 12.441406 4.296875 12.472656 4.296875 12.5 4.296875 C 16.996094 4.3125 20.648438 7.933594 20.703125 12.429688 C 20.707031 13.066406 20.640625 13.703125 20.5 14.324219 Z M 14.0625 7.421875 C 14.0625 8.285156 13.363281 8.984375 12.5 8.984375 C 11.636719 8.984375 10.9375 8.285156 10.9375 7.421875 C 10.9375 6.558594 11.636719 5.859375 12.5 5.859375 C 13.363281 5.859375 14.0625 6.558594 14.0625 7.421875 Z M 9.457031 10.742188 C 9.023438 11.488281 8.066406 11.746094 7.320312 11.3125 C 6.574219 10.882812 6.316406 9.925781 6.75 9.179688 C 7.179688 8.433594 8.136719 8.175781 8.882812 8.609375 C 9.628906 9.039062 9.886719 9.996094 9.457031 10.742188 Z M 9.457031 14.257812 C 9.886719 15.003906 9.628906 15.960938 8.882812 16.390625 C 8.136719 16.824219 7.179688 16.566406 6.75 15.820312 C 6.316406 15.074219 6.574219 14.117188 7.320312 13.6875 C 8.066406 13.253906 9.023438 13.511719 9.457031 14.257812 Z M 18.25 9.179688 C 18.683594 9.925781 18.425781 10.882812 17.679688 11.3125 C 16.933594 11.746094 15.976562 11.488281 15.542969 10.742188 C 15.113281 9.996094 15.371094 9.039062 16.117188 8.609375 C 16.863281 8.175781 17.820312 8.433594 18.25 9.179688 Z M 18.25 9.179688 "/>
</g>
</svg>
