<?xml version="1.0" encoding="UTF-8"?>
<svg xmlns="http://www.w3.org/2000/svg" xmlns:xlink="http://www.w3.org/1999/xlink" width="20px" height="20px" viewBox="0 0 20 20" version="1.1">
<g id="surface1">
<path style=" stroke:none;fill-rule:nonzero;fill:#284d7b;fill-opacity:1;" d="M 19.785156 15.167969 C 19.042969 13.761719 16.457031 12.234375 16.34375 12.167969 C 16.011719 11.976562 15.664062 11.878906 15.339844 11.878906 C 14.855469 11.878906 14.460938 12.097656 14.222656 12.5 C 13.84375 12.953125 13.375 13.480469 13.261719 13.5625 C 12.378906 14.160156 11.691406 14.09375 10.925781 13.332031 L 6.667969 9.070312 C 5.910156 8.3125 5.839844 7.613281 6.433594 6.738281 C 6.519531 6.625 7.046875 6.15625 7.5 5.777344 C 7.789062 5.605469 7.984375 5.351562 8.070312 5.035156 C 8.1875 4.621094 8.101562 4.128906 7.832031 3.652344 C 7.765625 3.542969 6.238281 0.957031 4.832031 0.214844 C 4.570312 0.0742188 4.273438 0 3.976562 0 C 3.488281 0 3.027344 0.191406 2.683594 0.539062 L 1.742188 1.476562 C 0.253906 2.964844 -0.285156 4.652344 0.140625 6.492188 C 0.496094 8.023438 1.527344 9.652344 3.210938 11.335938 L 8.664062 16.789062 C 10.792969 18.917969 12.824219 20 14.699219 20 C 16.078125 20 17.367188 19.414062 18.519531 18.257812 L 19.460938 17.316406 C 20.035156 16.746094 20.164062 15.882812 19.785156 15.167969 Z M 19.785156 15.167969 "/>
</g>
</svg>
