<?xml version="1.0" encoding="UTF-8"?>
<svg xmlns="http://www.w3.org/2000/svg" xmlns:xlink="http://www.w3.org/1999/xlink" width="20px" height="20px" viewBox="0 0 20 20" version="1.1">
<g id="surface1">
<path style=" stroke:none;fill-rule:nonzero;fill:rgb(0%,0%,0%);fill-opacity:1;" d="M 0 0 L 0 20 L 20 20 L 20 0 Z M 12.800781 12.234375 C 11.277344 13.019531 10.039062 12.632812 9.710938 12.46875 C 9.386719 12.308594 9.113281 11.921875 9.113281 11.921875 C 9.113281 11.921875 8.738281 13.535156 8.4375 14.371094 C 8.136719 15.210938 7.160156 16.335938 7.160156 16.335938 C 7.160156 16.335938 6.847656 15.074219 7.074219 13.695312 C 7.296875 12.320312 8.023438 9.355469 8.023438 9.355469 C 8.023438 9.355469 7.585938 8.480469 7.949219 7.617188 C 8.3125 6.753906 8.9375 6.355469 9.761719 6.667969 C 10.589844 6.980469 10.1875 8.15625 10.101562 8.441406 C 10.011719 8.730469 9.4375 10.207031 9.613281 10.71875 C 9.789062 11.230469 11 12.320312 12.464844 10.320312 C 13.929688 8.316406 13.117188 6.167969 11.890625 5.378906 C 11.011719 4.816406 8.878906 4.199219 7.324219 5.953125 C 5.398438 8.128906 7.097656 10.007812 7.097656 10.007812 L 6.648438 11.058594 C 6.648438 11.058594 4.820312 10.695312 4.984375 8.015625 C 5.148438 5.339844 7.6875 3.652344 10.0625 3.664062 C 12.441406 3.675781 14.066406 4.953125 14.804688 6.839844 C 15.542969 8.730469 14.328125 11.445312 12.800781 12.234375 Z M 12.800781 12.234375 "/>
</g>
</svg>
