<?xml version="1.0" encoding="UTF-8"?>
<svg xmlns="http://www.w3.org/2000/svg" xmlns:xlink="http://www.w3.org/1999/xlink" width="25px" height="150px" viewBox="0 0 25 25" version="1.1">
<g id="surface1">
<path style=" stroke:none;fill-rule:nonzero;fill:rgb(0%,0%,0%);fill-opacity:1;" d="M 12.5 25 C 19.394531 25 25 19.394531 25 12.5 C 25 5.605469 19.394531 0 12.5 0 C 5.605469 0 0 5.605469 0 12.5 C 0 19.394531 5.605469 25 12.5 25 Z M 12.5 1.75 C 18.429688 1.75 23.25 6.570312 23.25 12.5 C 23.25 18.429688 18.429688 23.25 12.5 23.25 C 6.570312 23.25 1.75 18.429688 1.75 12.5 C 1.75 6.570312 6.570312 1.75 12.5 1.75 Z M 12.5 1.75 "/>
<path style=" stroke:none;fill-rule:nonzero;fill:rgb(0%,0%,0%);fill-opacity:1;" d="M 13.253906 16.796875 C 13.421875 16.964844 13.648438 17.050781 13.871094 17.050781 C 14.097656 17.050781 14.320312 16.964844 14.488281 16.796875 C 14.832031 16.453125 14.832031 15.898438 14.488281 15.554688 L 11.429688 12.496094 L 14.488281 9.433594 C 14.832031 9.09375 14.832031 8.535156 14.488281 8.195312 C 14.148438 7.851562 13.59375 7.851562 13.25 8.195312 L 9.570312 11.871094 C 9.40625 12.035156 9.316406 12.261719 9.316406 12.488281 C 9.316406 12.71875 9.40625 12.945312 9.570312 13.105469 Z M 13.253906 16.796875 "/>
</g>
</svg>
