<?xml version="1.0" encoding="UTF-8"?>
<svg xmlns="http://www.w3.org/2000/svg" xmlns:xlink="http://www.w3.org/1999/xlink" width="20px" height="20px" viewBox="0 0 20 20" version="1.1">
<g id="surface1">
<path style=" stroke:none;fill-rule:evenodd;fill:rgb(0%,0%,0%);fill-opacity:1;" d="M 0 0 L 0 20 L 20 20 L 20 0 Z M 15.503906 7.175781 C 15.511719 7.296875 15.515625 7.421875 15.515625 7.542969 C 15.515625 11.296875 12.65625 15.625 7.429688 15.625 C 5.828125 15.625 4.332031 15.15625 3.078125 14.351562 C 3.300781 14.375 3.523438 14.390625 3.753906 14.390625 C 5.085938 14.390625 6.308594 13.9375 7.28125 13.171875 C 6.039062 13.152344 4.992188 12.328125 4.628906 11.199219 C 4.800781 11.234375 4.980469 11.25 5.164062 11.25 C 5.421875 11.25 5.671875 11.21875 5.910156 11.152344 C 4.613281 10.890625 3.632812 9.742188 3.632812 8.367188 C 3.632812 8.355469 3.632812 8.34375 3.632812 8.332031 C 4.015625 8.542969 4.453125 8.671875 4.921875 8.6875 C 4.15625 8.175781 3.65625 7.308594 3.65625 6.320312 C 3.65625 5.800781 3.796875 5.3125 4.039062 4.894531 C 5.441406 6.613281 7.535156 7.742188 9.894531 7.863281 C 9.847656 7.652344 9.824219 7.4375 9.824219 7.214844 C 9.824219 5.644531 11.09375 4.375 12.664062 4.375 C 13.480469 4.375 14.21875 4.71875 14.738281 5.269531 C 15.382812 5.144531 15.992188 4.90625 16.539062 4.582031 C 16.328125 5.246094 15.878906 5.800781 15.292969 6.152344 C 15.867188 6.085938 16.414062 5.933594 16.921875 5.707031 C 16.542969 6.277344 16.0625 6.777344 15.503906 7.175781 Z M 15.503906 7.175781 "/>
</g>
</svg>
