<svg xmlns="http://www.w3.org/2000/svg" viewBox="0 0 536.43 1077.6"><defs><style>.cls-1{fill:#284d7b;}.cls-2{fill:#f6cd13;}</style></defs><g id="Layer_2" data-name="Layer 2"><g id="Layer_1-2" data-name="Layer 1"><path class="cls-1" d="M507,1077.6c-83.6-34.5-230.18-236.5-394.66-321.5s362.66-245,419.47-296-431.36-263-477.6-304,57.47-93,62.76-103S65.22,1.78,65.22,1.78l-42.4,0S79.88,43.06,74.6,53.06s-109,62-62.76,103,534.41,253,477.6,304-583.95,211-419.47,296,311.07,287,394.66,321.5Z"/><path class="cls-2" d="M485.74,1076.75a122.65,122.65,0,0,1-13.55-6.7,1,1,0,0,1,1-1.73,120.32,120.32,0,0,0,13.33,6.58,1,1,0,1,1-.76,1.85Z"/><path class="cls-2" d="M446.8,1053c-8.12-6.15-16-12.62-23.69-19.25a1,1,0,0,1,1.26-1.46c7.69,6.6,15.52,13,23.6,19.15a1,1,0,0,1-1.17,1.56Z"/><path class="cls-2" d="M400.38,1013.45l-22.21-20.88a.93.93,0,1,1,1.27-1.35h0l22.21,20.84h0a.94.94,0,0,1-1.29,1.38Z"/><path class="cls-2" d="M356.24,971.42l-21.83-21.25a.9.9,0,0,1,0-1.27.89.89,0,0,1,1.26,0l21.85,21.22a.91.91,0,0,1-1.27,1.31Z"/><path class="cls-2" d="M312.54,929l-22-21h0a.86.86,0,0,1,0-1.22.87.87,0,0,1,1.22,0l22,21a.86.86,0,0,1,0,1.24.87.87,0,0,1-1.24,0h0Z"/><path class="cls-2" d="M268.28,887.12l-22.57-20.43h0a.83.83,0,0,1,1.12-1.23l22.62,20.43a.85.85,0,1,1-1.14,1.25h0Z"/><path class="cls-2" d="M222.72,846.73l-23.48-19.38,0,0a.8.8,0,0,1,1-1.23l23.54,19.38a.81.81,0,0,1,.11,1.15.8.8,0,0,1-1.14.11h0Z"/><path class="cls-2" d="M175.17,808.7,150.44,791h0a.77.77,0,0,1-.18-1.07.76.76,0,0,1,1.07-.18l24.8,17.76a.78.78,0,1,1-.91,1.27h0Z"/><path class="cls-2" d="M125,774.32c-8.62-5.33-17.39-10.44-26.31-15.26a.74.74,0,0,1,.7-1.3c9,4.83,17.75,10,26.4,15.28a.76.76,0,0,1,.25,1,.75.75,0,0,1-1,.25Z"/><path class="cls-2" d="M72.69,743a45.75,45.75,0,0,1-9.9-11.81,29.74,29.74,0,0,1-3.9-14.92.7.7,0,1,1,1.4,0A28.41,28.41,0,0,0,64,730.46a44.29,44.29,0,0,0,9.6,11.42h0a.72.72,0,1,1-.94,1.08Z"/><path class="cls-2" d="M70.7,688.24a145.16,145.16,0,0,1,21.66-21.55.68.68,0,0,1,1,.08.69.69,0,0,1-.09,1,144.33,144.33,0,0,0-21.44,21.36.68.68,0,0,1-1.08-.84Z"/><path class="cls-2" d="M116.93,648.57c8.45-5.65,17.1-11,25.87-16.15a.64.64,0,0,1,.87.22.63.63,0,0,1-.23.87c-8.74,5.15-17.36,10.5-25.78,16.15a.66.66,0,0,1-.73-1.09Z"/><path class="cls-2" d="M169.38,617.54l27-14a.62.62,0,0,1,.82.26.61.61,0,0,1-.26.82h0l-27,14h0a.62.62,0,0,1-.84-.27.61.61,0,0,1,.27-.83Z"/><path class="cls-2" d="M223.77,590.19l27.61-12.87a.58.58,0,0,1,.76.28.57.57,0,0,1-.28.76h0l-27.57,12.9h0a.59.59,0,0,1-.78-.28.6.6,0,0,1,.28-.79Z"/><path class="cls-2" d="M279.16,564.81l27.91-12.24a.54.54,0,1,1,.43,1l-27.88,12.27a.57.57,0,0,1-.74-.28.56.56,0,0,1,.28-.74Z"/><path class="cls-2" d="M335.05,540.52l28-11.94a.5.5,0,1,1,.39.93l-28,12a.51.51,0,0,1-.69-.27.52.52,0,0,1,.27-.69Z"/><path class="cls-2" d="M391.12,516.65l28-12a.48.48,0,0,1,.63.24.49.49,0,0,1-.25.63l-28,12a.49.49,0,1,1-.39-.9Z"/><path class="cls-2" d="M447,492.33l27.57-12.92h0a.44.44,0,0,1,.59.22.44.44,0,0,1-.21.58l-27.59,13a.46.46,0,1,1-.39-.83h0Z"/><path class="cls-2" d="M501.26,464.88c2.14-1.36,4.24-2.77,6.25-4.3a25.19,25.19,0,0,0,5.43-5.11,11.94,11.94,0,0,0,2.17-6.91,19.19,19.19,0,0,0-1.61-7.23.41.41,0,1,1,.76-.32,19.92,19.92,0,0,1,1.68,7.55,12.7,12.7,0,0,1-2.32,7.39,25.84,25.84,0,0,1-5.6,5.31c-2,1.54-4.15,3-6.3,4.34a.42.42,0,0,1-.59-.13.43.43,0,0,1,.13-.59Z"/><path class="cls-2" d="M494.67,417.86a287.9,287.9,0,0,0-23.6-19.18.38.38,0,0,1,.45-.61,287,287,0,0,1,23.68,19.21.39.39,0,0,1,0,.56.4.4,0,0,1-.56,0Z"/><path class="cls-2" d="M446.07,381.31,420.3,365h0a.35.35,0,0,1-.11-.48.35.35,0,0,1,.48-.11l25.8,16.35a.36.36,0,0,1-.39.61h0Z"/><path class="cls-2" d="M394.2,349.33l-26.38-15.14a.32.32,0,0,1-.13-.43.33.33,0,0,1,.44-.12l26.41,15.11a.35.35,0,0,1,.12.46.34.34,0,0,1-.45.12h0Z"/><path class="cls-2" d="M341.22,319.41l-26.77-14.5a.28.28,0,0,1-.11-.38.28.28,0,0,1,.38-.12l26.78,14.48a.3.3,0,0,1,.13.4.3.3,0,0,1-.41.12Z"/><path class="cls-2" d="M287.56,290.62l-27-14.13a.26.26,0,0,1-.11-.34.25.25,0,0,1,.34-.1l27,14.1a.27.27,0,0,1-.25.47Z"/><path class="cls-2" d="M233.51,262.49l-27.1-13.92a.22.22,0,0,1-.09-.3.21.21,0,0,1,.29-.09l27.12,13.89a.23.23,0,0,1,.1.31.24.24,0,0,1-.32.11Z"/><path class="cls-2" d="M179.28,234.69l-27.12-13.87a.19.19,0,1,1,.17-.33l27.14,13.84a.2.2,0,0,1,.09.27.21.21,0,0,1-.28.09Z"/><path class="cls-2" d="M125.07,206.88l-27-14.1a.15.15,0,0,1-.07-.21.16.16,0,0,1,.21-.06l27,14.07a.17.17,0,0,1,.08.23.18.18,0,0,1-.23.07Z"/><path class="cls-2" d="M71.24,178.32c-8.88-4.93-17.73-9.93-26.31-15.37a.12.12,0,0,1,0-.17.13.13,0,0,1,.17,0c8.58,5.43,17.43,10.42,26.31,15.34a.14.14,0,0,1,0,.19.13.13,0,0,1-.18,0Z"/><path class="cls-2" d="M23.43,141.9a26.4,26.4,0,0,1-2.06-7.34,27.4,27.4,0,0,1,.13-7.62,41.17,41.17,0,0,1,5.37-14.19.09.09,0,0,1,.12,0,.1.1,0,0,1,0,.13A40.73,40.73,0,0,0,21.7,127a27,27,0,0,0-.13,7.57,25.94,25.94,0,0,0,2.06,7.27.11.11,0,0,1-.06.14.11.11,0,0,1-.14,0Z"/><path class="cls-2" d="M46.72,89.68a284.24,284.24,0,0,1,23.81-19,.06.06,0,0,1,.08,0,.05.05,0,0,1,0,.08,284.18,284.18,0,0,0-23.79,19,.07.07,0,0,1-.09-.11Z"/><path class="cls-2" d="M95,52.51A4.92,4.92,0,0,0,96,51a3.67,3.67,0,0,0,.13-1.86,11,11,0,0,0-1.36-3.52,39.6,39.6,0,0,0-4.49-6.14A133.34,133.34,0,0,0,79.57,28.63a0,0,0,0,1,0,0,0,0,0,0,1,0,0A133.35,133.35,0,0,1,90.34,39.4a40.39,40.39,0,0,1,4.51,6.14,11.28,11.28,0,0,1,1.37,3.55,3.83,3.83,0,0,1-.14,1.9A5,5,0,0,1,95,52.56a0,0,0,0,1-.06,0,0,0,0,0,1,0-.06Z"/><polygon class="cls-2" points="56.06 9.04 44.09 0 56.07 9.03 56.08 9.04 56.06 9.04 56.06 9.04"/></g></g></svg>