<svg xmlns="http://www.w3.org/2000/svg" viewBox="0 0 812.06 1077.6"><defs><style>.cls-1{fill:#284d7b;}.cls-2{fill:#f6cd13;}</style></defs><g id="Layer_2" data-name="Layer 2"><g id="Layer_1-2" data-name="Layer 1"><path class="cls-1" d="M767.56,1077.6C641,1043.1,419.11,841.1,170.11,756.1s549-245,635-296-653-263-723-304,87-93,95-103S98.73,1.78,98.73,1.78l-64.18,0s86.38,41.32,78.38,51.32-165,62-95,103,809,253,723,304-884,211-635,296,470.9,287,597.45,321.5Z"/><path class="cls-2" d="M735.64,1076.79c-4.85-1.32-9.64-2.84-14.38-4.48a1,1,0,0,1,.65-1.88c4.71,1.63,9.46,3.12,14.26,4.43a1,1,0,0,1,.7,1.23,1,1,0,0,1-1.23.7Z"/><path class="cls-2" d="M693.59,1061.12c-9.06-4.11-18-8.52-26.78-13.12a1,1,0,1,1,.9-1.72c8.78,4.58,17.67,9,26.69,13a1,1,0,0,1-.81,1.79Z"/><path class="cls-2" d="M640.66,1033.69,615,1018.63a.94.94,0,0,1,.95-1.63h0l25.68,15h0a1,1,0,1,1-1,1.65Z"/><path class="cls-2" d="M589.55,1003.08l-25.21-15.85a.93.93,0,0,1,1-1.57h0l25.21,15.82h0a.93.93,0,0,1-1,1.58Z"/><path class="cls-2" d="M539.25,971.2l-25-16.09a.9.9,0,0,1-.27-1.25.89.89,0,0,1,1.24-.27l25.06,16.08a.91.91,0,0,1,.27,1.26.92.92,0,0,1-1.26.28Z"/><path class="cls-2" d="M489.16,939l-25.1-16a.88.88,0,0,1-.28-1.21.9.9,0,0,1,1.22-.28l25.12,16a.9.9,0,0,1,.27,1.23.88.88,0,0,1-1.23.27Z"/><path class="cls-2" d="M438.87,907.16,413.56,891.5h0a.87.87,0,0,1-.28-1.18.86.86,0,0,1,1.18-.28l25.34,15.65a.86.86,0,0,1-.91,1.47h0Z"/><path class="cls-2" d="M388.09,876.1,362.44,861h0a.82.82,0,0,1-.29-1.14.81.81,0,0,1,1.13-.29L389,874.65a.83.83,0,0,1,.3,1.15.84.84,0,0,1-1.15.3h0Z"/><path class="cls-2" d="M336.58,846.28,310.49,832h0a.8.8,0,0,1-.32-1.09.79.79,0,0,1,1.09-.32l26.13,14.3a.82.82,0,1,1-.79,1.43h0Z"/><path class="cls-2" d="M284.14,818.14l-26.62-13.29h0a.78.78,0,1,1,.7-1.4l26.67,13.28a.8.8,0,0,1-.71,1.43h0Z"/><path class="cls-2" d="M230.6,792.17l-27.22-12h0a.76.76,0,0,1,.61-1.39l27.27,12a.77.77,0,1,1-.62,1.42h0Z"/><path class="cls-2" d="M175.83,768.92,148,758.52h0a.74.74,0,0,1-.43-1,.73.73,0,0,1,1-.43l27.92,10.4a.75.75,0,1,1-.52,1.4h0Z"/><path class="cls-2" d="M120.06,748a107.35,107.35,0,0,1-13.19-7.1,51.75,51.75,0,0,1-11.5-9.7.72.72,0,0,1,.08-1,.71.71,0,0,1,1,.08h0a49.89,49.89,0,0,0,11.18,9.41,107,107,0,0,0,13,7,.73.73,0,0,1,.37,1,.74.74,0,0,1-1,.36Z"/><path class="cls-2" d="M93.92,702.89a59.34,59.34,0,0,1,9.74-11.44A121.85,121.85,0,0,1,115.27,682a.7.7,0,1,1,.81,1.13,118.19,118.19,0,0,0-11.46,9.34,58.08,58.08,0,0,0-9.51,11.16h0a.72.72,0,0,1-1,.22.71.71,0,0,1-.21-1Z"/><path class="cls-2" d="M140.66,666.32c8.74-4.75,17.66-9.14,26.67-13.31a.67.67,0,0,1,.89.33.66.66,0,0,1-.32.88c-9,4.18-17.89,8.56-26.59,13.3a.68.68,0,0,1-.65-1.2Z"/><path class="cls-2" d="M194.64,641.09l27.49-10.92a.64.64,0,0,1,.84.36.65.65,0,0,1-.36.84h0L195.15,642.3h0a.67.67,0,0,1-.86-.37.65.65,0,0,1,.37-.85Z"/><path class="cls-2" d="M250.07,619.83,278.16,610a.61.61,0,0,1,.79.38.63.63,0,0,1-.38.79h0L250.5,621h0a.64.64,0,0,1-.81-.39.64.64,0,0,1,.39-.81Z"/><path class="cls-2" d="M306.38,600.6l28.32-9.1a.6.6,0,1,1,.37,1.14h0l-28.31,9.12h0a.61.61,0,1,1-.37-1.16Z"/><path class="cls-2" d="M363.12,582.65,391.6,574a.58.58,0,0,1,.72.38.58.58,0,0,1-.39.72l-28.47,8.66a.59.59,0,0,1-.35-1.13Z"/><path class="cls-2" d="M420.15,565.55l28.59-8.32a.55.55,0,0,1,.31,1.06l-28.58,8.35a.58.58,0,0,1-.7-.38.57.57,0,0,1,.38-.71Z"/><path class="cls-2" d="M477.36,549,506,540.88a.54.54,0,0,1,.65.37.52.52,0,0,1-.36.65l-28.63,8.16a.55.55,0,0,1-.67-.37.53.53,0,0,1,.37-.67Z"/><path class="cls-2" d="M534.66,532.81l28.67-8a.5.5,0,0,1,.27,1l-28.66,8.07a.51.51,0,1,1-.28-1Z"/><path class="cls-2" d="M592,516.7l28.65-8.11a.48.48,0,0,1,.59.34.47.47,0,0,1-.33.59l-28.64,8.13a.49.49,0,1,1-.27-.95Z"/><path class="cls-2" d="M649.26,500.39,677.82,492a.46.46,0,0,1,.57.31.46.46,0,0,1-.31.57l-28.56,8.41a.47.47,0,0,1-.59-.32.47.47,0,0,1,.32-.58Z"/><path class="cls-2" d="M706.29,483.3,734.57,474h0a.44.44,0,1,1,.27.83l-28.29,9.31a.46.46,0,0,1-.57-.29.44.44,0,0,1,.29-.56h0Z"/><path class="cls-2" d="M762.34,463.41q3.4-1.49,6.72-3.15a46.88,46.88,0,0,0,6.34-3.73,11.32,11.32,0,0,0,4.26-5.63,10.14,10.14,0,0,0-.71-7,.41.41,0,0,1,.21-.54.4.4,0,0,1,.54.21,10.93,10.93,0,0,1,.76,7.53,10.07,10.07,0,0,1-1.8,3.41,16.8,16.8,0,0,1-2.75,2.65,47.47,47.47,0,0,1-6.47,3.81c-2.22,1.13-4.48,2.18-6.75,3.18a.41.41,0,0,1-.56-.22.42.42,0,0,1,.21-.56Z"/><path class="cls-2" d="M757.94,423.62a291.84,291.84,0,0,0-25.56-15.18.38.38,0,0,1-.16-.52.39.39,0,0,1,.53-.16A292.74,292.74,0,0,1,758.39,423a.4.4,0,1,1-.45.67Z"/><path class="cls-2" d="M705.79,395.11,678.7,382.78h0a.38.38,0,0,1-.18-.49.37.37,0,0,1,.49-.18l27.11,12.32a.37.37,0,1,1-.31.68h0Z"/><path class="cls-2" d="M651.33,371.1l-27.58-11.21a.35.35,0,1,1,.26-.64l27.59,11.2a.35.35,0,0,1-.27.65Z"/><path class="cls-2" d="M596.06,349l-27.79-10.58a.32.32,0,1,1,.22-.6l27.81,10.56a.33.33,0,0,1,.19.43.33.33,0,0,1-.43.19Z"/><path class="cls-2" d="M540.39,328.09l-27.95-10.18a.31.31,0,0,1-.18-.38.29.29,0,0,1,.38-.18l28,10.16a.32.32,0,0,1,.19.4.31.31,0,0,1-.4.18Z"/><path class="cls-2" d="M484.43,307.87,456.37,298a.28.28,0,0,1,.19-.52l28.06,9.89a.3.3,0,0,1,.18.37.28.28,0,0,1-.36.17Z"/><path class="cls-2" d="M428.27,288.15l-28.14-9.73a.24.24,0,0,1-.15-.32.24.24,0,0,1,.32-.15l28.14,9.7a.26.26,0,0,1,.16.34.26.26,0,0,1-.33.16Z"/><path class="cls-2" d="M372,268.76l-28.18-9.6a.22.22,0,0,1-.14-.28.23.23,0,0,1,.28-.15l28.19,9.58a.24.24,0,0,1-.15.46Z"/><path class="cls-2" d="M315.59,249.6l-28.2-9.53a.2.2,0,0,1-.13-.26.21.21,0,0,1,.26-.13l28.21,9.52a.21.21,0,0,1-.14.4Z"/><path class="cls-2" d="M259.17,230.54,231,221a.17.17,0,0,1-.11-.23.18.18,0,0,1,.22-.11l28.22,9.51a.19.19,0,0,1,.12.24.2.2,0,0,1-.25.12Z"/><path class="cls-2" d="M202.77,211.44l-28.17-9.63a.17.17,0,0,1-.1-.2.16.16,0,0,1,.2-.09l28.18,9.6a.18.18,0,0,1,.11.22.16.16,0,0,1-.21.1Z"/><path class="cls-2" d="M146.47,192.07l-28.07-9.94a.13.13,0,1,1,.09-.25l28.07,9.91a.14.14,0,0,1,.09.19.14.14,0,0,1-.18.09Z"/><path class="cls-2" d="M90.46,171.84c-9.28-3.54-18.53-7.15-27.62-11.14a.12.12,0,0,1-.06-.15.11.11,0,0,1,.15-.05c9.09,4,18.34,7.58,27.62,11.11a.13.13,0,0,1,.07.16.14.14,0,0,1-.16.07Z"/><path class="cls-2" d="M37.84,144.86a25.29,25.29,0,0,1-4.11-6.21,18.12,18.12,0,0,1-1.63-7.24,20.09,20.09,0,0,1,1.37-7.31A31.82,31.82,0,0,1,37,117.53a.11.11,0,0,1,.13,0,.09.09,0,0,1,0,.13,31,31,0,0,0-3.47,6.54,19.71,19.71,0,0,0-1.36,7.24,17.88,17.88,0,0,0,1.63,7.16A25.23,25.23,0,0,0,38,144.73a.1.1,0,1,1-.14.13Z"/><path class="cls-2" d="M58.73,97.4A262.75,262.75,0,0,1,84.24,82.06a.07.07,0,0,1,.09,0,.08.08,0,0,1,0,.09A263.18,263.18,0,0,0,58.82,97.52a.07.07,0,0,1-.11,0,.08.08,0,0,1,0-.1Z"/><path class="cls-2" d="M110.88,68.74l13.47-6.32c4.5-2.11,9-4.21,13.41-6.46,0,0,.05,0,.06,0a0,0,0,0,1,0,.06c-4.42,2.26-8.92,4.36-13.41,6.47l-13.47,6.34a.05.05,0,0,1-.07,0,.06.06,0,0,1,0-.07Z"/><path class="cls-2" d="M132.39,36.3c-8.17-5.63-16.76-10.63-25.42-15.48,0,0,0,0,0,0s0,0,0,0c8.66,4.84,17.26,9.83,25.44,15.47,0,0,0,0,0,0s0,0,0,0Z"/><polygon class="cls-2" points="80.19 6.65 66.75 0 80.19 6.64 80.2 6.65 80.19 6.65 80.19 6.65"/></g></g></svg>