<svg xmlns="http://www.w3.org/2000/svg" viewBox="0 0 1257.43 1077.6"><defs><style>.cls-1{fill:#284d7b;}.cls-2{fill:#f6cd13;}</style></defs><g id="Layer_2" data-name="Layer 2"><g id="Layer_1-2" data-name="Layer 1"><path class="cls-1" d="M1188.52,1077.6c-196-34.5-539.55-236.5-925.11-321.5s850.09-245,983.26-296-1011.14-263-1119.53-304,134.72-93,147.11-103S152.87,1.78,152.87,1.78l-99.38,0S187.25,43.06,174.86,53.06s-255.49,62-147.1,103,1252.69,253,1119.52,304-1368.82,211-983.25,296,729.15,287,925.11,321.5Z"/><path class="cls-2" d="M1139.33,1076.81l-14.76-2.85a1,1,0,1,1,.38-2h0l14.7,2.83h0a1,1,0,0,1-.38,2Z"/><path class="cls-2" d="M1095.29,1067l-28.94-8.21a1,1,0,0,1-.68-1.21,1,1,0,0,1,1.21-.67h0l28.87,8.18h0a1,1,0,1,1-.54,1.9Z"/><path class="cls-2" d="M1037.69,1049.66l-28.42-9.8a1,1,0,0,1,.63-1.83h0l28.39,9.78h0a1,1,0,1,1-.63,1.83Z"/><path class="cls-2" d="M981,1029.53,953,1018.83a1,1,0,1,1,.68-1.78h0l28.07,10.68h0a1,1,0,0,1-.68,1.78Z"/><path class="cls-2" d="M925,1007.83,897.1,996.62a.94.94,0,0,1-.52-1.22.93.93,0,0,1,1.21-.51h0l27.88,11.19h0a.94.94,0,0,1-.7,1.75Z"/><path class="cls-2" d="M869.27,985.26,841.49,973.8a.91.91,0,0,1,.7-1.69L870,983.55a.92.92,0,1,1-.69,1.71Z"/><path class="cls-2" d="M813.73,962.29,786,950.76a.9.9,0,1,1,.68-1.66l27.76,11.51a.91.91,0,0,1-.7,1.68Z"/><path class="cls-2" d="M758.23,939.26l-27.78-11.45a.89.89,0,0,1,.67-1.64l27.79,11.44a.9.9,0,0,1,.48,1.17.88.88,0,0,1-1.16.48Z"/><path class="cls-2" d="M702.64,916.43l-27.85-11.28a.87.87,0,0,1-.48-1.13.88.88,0,0,1,1.13-.48l27.86,11.27a.87.87,0,1,1-.65,1.62Z"/><path class="cls-2" d="M646.89,894l-27.95-11a.85.85,0,1,1,.62-1.58l28,11a.86.86,0,0,1-.63,1.59Z"/><path class="cls-2" d="M590.92,872.17l-28.1-10.64h0a.83.83,0,0,1-.49-1.07.84.84,0,0,1,1.08-.49l28.11,10.63a.85.85,0,0,1-.6,1.58h0Z"/><path class="cls-2" d="M534.65,851.11l-28.26-10.2h0a.83.83,0,0,1-.49-1,.81.81,0,0,1,1.05-.49l28.27,10.18a.83.83,0,0,1-.56,1.56Z"/><path class="cls-2" d="M478,831l-28.44-9.67h0a.81.81,0,0,1-.5-1,.8.8,0,0,1,1-.5l28.46,9.66a.81.81,0,0,1-.52,1.54h0Z"/><path class="cls-2" d="M421.06,811.91l-28.63-9.08h0a.79.79,0,0,1,.47-1.5l28.66,9.06a.8.8,0,1,1-.48,1.52h0Z"/><path class="cls-2" d="M363.69,794.09l-28.84-8.39h0a.77.77,0,1,1,.43-1.48l28.86,8.38a.78.78,0,1,1-.43,1.49h0Z"/><path class="cls-2" d="M305.9,777.68l-29.06-7.62h0a.75.75,0,0,1-.53-.92.76.76,0,0,1,.92-.54l29.07,7.62a.76.76,0,1,1-.38,1.47h0Z"/><path class="cls-2" d="M247.68,762.85l-29.26-6.78h0a.74.74,0,0,1-.56-.88.75.75,0,0,1,.89-.56L248,761.39a.76.76,0,0,1,.56.9.75.75,0,0,1-.9.56h0Z"/><path class="cls-2" d="M189.2,748.91a194.12,194.12,0,0,1-28.38-10.14.72.72,0,0,1,.61-1.31h0a193.36,193.36,0,0,0,28.17,10,.73.73,0,0,1,.5.9.72.72,0,0,1-.9.5Z"/><path class="cls-2" d="M139.12,718.56a14.37,14.37,0,0,1,1.09-7.73,25.1,25.1,0,0,1,4.18-6.47,59.84,59.84,0,0,1,11.55-9.84.7.7,0,1,1,.79,1.16h0a58,58,0,0,0-11.26,9.6,23.57,23.57,0,0,0-3.95,6.09,13,13,0,0,0-1,7v0a.72.72,0,0,1-1.42.2Z"/><path class="cls-2" d="M182.48,680.26c9.16-4.11,18.5-7.78,27.92-11.24a.69.69,0,0,1,.47,1.3c-9.39,3.45-18.7,7.12-27.82,11.21a.7.7,0,1,1-.57-1.27Z"/><path class="cls-2" d="M238.86,659.31l28.75-8.78a.66.66,0,0,1,.84.45.67.67,0,0,1-.44.84h0l-28.72,8.78h0a.68.68,0,1,1-.4-1.3Z"/><path class="cls-2" d="M296.56,642.41l29.07-7.63a.66.66,0,0,1,.8.47.64.64,0,0,1-.46.8h0l-29,7.65h0a.67.67,0,1,1-.34-1.29Z"/><path class="cls-2" d="M354.8,627.53,384,620.58a.66.66,0,0,1,.78.48.65.65,0,0,1-.48.77h0l-29.22,7h0a.64.64,0,0,1-.78-.48.65.65,0,0,1,.48-.78Z"/><path class="cls-2" d="M413.35,613.89l29.32-6.48a.64.64,0,0,1,.75.48.63.63,0,0,1-.48.74l-29.31,6.5a.64.64,0,0,1-.76-.48.63.63,0,0,1,.47-.76Z"/><path class="cls-2" d="M472,601.11,501.43,595a.62.62,0,0,1,.72.48.61.61,0,0,1-.47.72l-29.39,6.16a.62.62,0,0,1-.26-1.21Z"/><path class="cls-2" d="M530.86,589l29.45-5.9a.59.59,0,1,1,.23,1.16l-29.44,5.92a.6.6,0,0,1-.24-1.18Z"/><path class="cls-2" d="M589.79,577.25l29.49-5.71a.58.58,0,1,1,.22,1.13L590,578.4a.59.59,0,1,1-.23-1.15Z"/><path class="cls-2" d="M648.8,565.9l29.53-5.57a.56.56,0,1,1,.21,1.1L649,567a.58.58,0,0,1-.67-.45.57.57,0,0,1,.45-.67Z"/><path class="cls-2" d="M707.87,554.81l29.55-5.46a.55.55,0,0,1,.64.43.55.55,0,0,1-.44.64l-29.54,5.48a.56.56,0,1,1-.21-1.09Z"/><path class="cls-2" d="M767,543.92l29.56-5.4a.53.53,0,0,1,.19,1L767.17,545a.53.53,0,1,1-.19-1.05Z"/><path class="cls-2" d="M826.11,533.14l29.56-5.36a.51.51,0,0,1,.6.41.52.52,0,0,1-.41.6l-29.57,5.38a.52.52,0,0,1-.18-1Z"/><path class="cls-2" d="M885.24,522.42l29.57-5.37a.49.49,0,1,1,.18,1l-29.57,5.39a.5.5,0,0,1-.18-1Z"/><path class="cls-2" d="M944.38,511.66l29.55-5.43a.47.47,0,0,1,.56.38.48.48,0,0,1-.38.56l-29.56,5.45a.5.5,0,0,1-.57-.4.48.48,0,0,1,.39-.56Z"/><path class="cls-2" d="M1003.48,500.75l29.53-5.57a.46.46,0,0,1,.54.37.46.46,0,0,1-.37.54l-29.53,5.58a.47.47,0,0,1-.55-.37.46.46,0,0,1,.38-.55Z"/><path class="cls-2" d="M1062.51,489.5l29.48-5.85a.45.45,0,1,1,.17.88l-29.47,5.87a.46.46,0,0,1-.18-.9Z"/><path class="cls-2" d="M1121.41,477.54l29.32-6.54h0a.43.43,0,0,1,.51.33.42.42,0,0,1-.33.51l-29.33,6.56a.43.43,0,0,1-.52-.33.44.44,0,0,1,.33-.53h0Z"/><path class="cls-2" d="M1179.84,463.61c4.81-1.36,9.6-2.8,14.32-4.45a59.42,59.42,0,0,0,6.92-2.77,16,16,0,0,0,5.76-4.39h0a.43.43,0,0,1,.58-.09.44.44,0,0,1,.09.59h0a16.64,16.64,0,0,1-6.07,4.64,59.38,59.38,0,0,1-7,2.83c-4.75,1.65-9.55,3.1-14.37,4.46a.42.42,0,0,1-.53-.29.43.43,0,0,1,.29-.52Z"/><path class="cls-2" d="M1190,431.52A260.92,260.92,0,0,0,1162.77,419a.39.39,0,0,1-.23-.51.41.41,0,0,1,.52-.23,262.55,262.55,0,0,1,27.36,12.52.41.41,0,0,1,.16.55.4.4,0,0,1-.55.16Z"/><path class="cls-2" d="M1134.61,408.61l-28.52-9.41h0a.39.39,0,0,1-.24-.49.37.37,0,0,1,.48-.24l28.55,9.4a.4.4,0,0,1,.25.49.39.39,0,0,1-.5.25h0Z"/><path class="cls-2" d="M1077.36,390.42l-28.86-8.35a.36.36,0,0,1-.26-.45.37.37,0,0,1,.46-.25l28.87,8.33a.37.37,0,0,1,.26.46.37.37,0,0,1-.46.26Z"/><path class="cls-2" d="M1019.54,374.06l-29-7.77a.35.35,0,0,1-.25-.42.35.35,0,0,1,.43-.25l29,7.74a.37.37,0,0,1,.26.44.36.36,0,0,1-.44.26Z"/><path class="cls-2" d="M961.43,358.74l-29.13-7.39a.32.32,0,0,1-.24-.4.33.33,0,0,1,.4-.25l29.14,7.37a.35.35,0,0,1,.25.42.35.35,0,0,1-.42.25Z"/><path class="cls-2" d="M903.16,344.11,874,337a.32.32,0,1,1,.15-.62l29.18,7.1a.33.33,0,0,1,.24.39.32.32,0,0,1-.4.24Z"/><path class="cls-2" d="M844.79,330l-29.22-6.92a.3.3,0,0,1-.22-.37.29.29,0,0,1,.36-.22l29.23,6.9a.31.31,0,1,1-.15.61Z"/><path class="cls-2" d="M786.33,316.23l-29.26-6.77a.29.29,0,0,1-.22-.34.3.3,0,0,1,.35-.22l29.26,6.76a.29.29,0,1,1-.13.57Z"/><path class="cls-2" d="M727.79,302.75l-29.3-6.65a.28.28,0,0,1-.2-.33.27.27,0,0,1,.32-.2l29.3,6.64a.27.27,0,0,1,.21.33.28.28,0,0,1-.33.21Z"/><path class="cls-2" d="M669.17,289.49l-29.32-6.56a.26.26,0,0,1-.19-.31.26.26,0,0,1,.3-.19L669.29,289a.26.26,0,0,1,.2.31.27.27,0,0,1-.32.2Z"/><path class="cls-2" d="M610.52,276.4l-29.34-6.5a.23.23,0,0,1-.18-.28.23.23,0,0,1,.28-.18l29.35,6.48a.24.24,0,0,1,.18.29.25.25,0,0,1-.29.19Z"/><path class="cls-2" d="M551.84,263.44,522.48,257a.21.21,0,0,1-.16-.26.21.21,0,0,1,.26-.17L551.93,263a.23.23,0,0,1-.09.45Z"/><path class="cls-2" d="M493.13,250.57l-29.36-6.41a.21.21,0,1,1,.09-.41l29.36,6.4a.2.2,0,0,1,.16.25.21.21,0,0,1-.25.17Z"/><path class="cls-2" d="M434.41,237.75l-29.36-6.4a.19.19,0,0,1,.08-.37l29.37,6.38a.21.21,0,0,1,.15.24.2.2,0,0,1-.24.15Z"/><path class="cls-2" d="M375.69,224.94l-29.36-6.41a.18.18,0,0,1-.13-.21.17.17,0,0,1,.2-.13l29.37,6.4a.17.17,0,0,1,.13.21.17.17,0,0,1-.21.14Z"/><path class="cls-2" d="M317,212.09l-29.34-6.46a.16.16,0,0,1-.12-.19.14.14,0,0,1,.18-.12L317,211.77a.16.16,0,0,1,.13.19.17.17,0,0,1-.2.13Z"/><path class="cls-2" d="M258.29,199.12,229,192.55a.14.14,0,0,1,.07-.28l29.32,6.56a.15.15,0,1,1-.06.29Z"/><path class="cls-2" d="M199.66,185.89l-29.27-6.79a.13.13,0,1,1,.05-.25l29.28,6.78a.13.13,0,0,1,.1.16.14.14,0,0,1-.16.1Z"/><path class="cls-2" d="M141.16,172.09,112,164.71a.1.1,0,0,1-.08-.13.11.11,0,0,1,.13-.08l29.13,7.37a.11.11,0,0,1,.09.14.11.11,0,0,1-.14.08Z"/><path class="cls-2" d="M83.15,156.38c-2.36-.85-4.75-1.62-7.08-2.54s-4.64-1.89-6.91-3a57.36,57.36,0,0,1-12.81-7.83.09.09,0,0,1,0-.13.09.09,0,0,1,.13,0,57.09,57.09,0,0,0,12.77,7.79c2.27,1.06,4.57,2,6.9,2.95s4.72,1.68,7.07,2.53h0a.1.1,0,1,1-.07.19Z"/><path class="cls-2" d="M57.38,117.43a76.32,76.32,0,0,1,12.08-8.93c4.28-2.62,8.71-5,13.2-7.2a.07.07,0,0,1,.1,0,.08.08,0,0,1,0,.1c-4.49,2.22-8.91,4.58-13.18,7.2a75.66,75.66,0,0,0-12,8.91.08.08,0,1,1-.12-.12Z"/><path class="cls-2" d="M110.29,89.4c9.35-3.6,18.8-6.93,28.29-10.11a.06.06,0,0,1,.08,0,.07.07,0,0,1,0,.08c-9.49,3.18-18.93,6.52-28.28,10.12a.09.09,0,0,1-.09,0,.08.08,0,0,1,0-.09Z"/><path class="cls-2" d="M167.2,70.13,196,61.39a.07.07,0,0,1,.06,0,.06.06,0,0,1,0,.06l-28.75,8.75a.07.07,0,0,1-.07,0s0-.06,0-.06Z"/><path class="cls-2" d="M224.33,51.6a2.46,2.46,0,0,0,1.17-1.37,2.31,2.31,0,0,0-.38-1.76,11.36,11.36,0,0,0-2.6-2.67,49.74,49.74,0,0,0-6.33-4c-4.4-2.4-8.95-4.5-13.53-6.52,0,0,0,0,0,0s0,0,0,0c4.59,2,9.14,4.11,13.54,6.52a48.1,48.1,0,0,1,6.34,4,11.49,11.49,0,0,1,2.62,2.68,2.1,2.1,0,0,1-.81,3.23s0,0-.05,0a0,0,0,0,1,0,0Z"/><path class="cls-2" d="M174.74,24.14l-28.32-10v0h0l28.33,10s0,0,0,0,0,0,0,0Z"/><polygon class="cls-2" points="117.64 4.54 103.35 0 117.65 4.53 117.65 4.53 117.64 4.54 117.64 4.54"/></g></g></svg>